<svg width="143" height="70" viewBox="0 0 143 70" fill="none" xmlns="http://www.w3.org/2000/svg">
<g clip-path="url(#clip0_1664_117645)">
<path d="M28.387 32.2266V40.2028C28.387 42.2155 28.9709 43.7996 30.1388 44.955C31.3191 46.1104 32.9963 46.6882 35.1705 46.6882C37.0714 46.6882 38.612 46.1663 39.7923 45.1227C40.9726 44.0791 41.6869 42.6069 41.9354 40.706L37.4255 39.8674C37.2764 41.5446 36.562 42.3832 35.2824 42.3832C34.6612 42.3832 34.1642 42.1907 33.7915 41.8055C33.4188 41.4204 33.2324 40.8861 33.2324 40.2028V32.2266H40.0159V28.2198H33.2324V22.2749H28.387V28.2198H24.6412V32.2266H28.387Z" fill="#252525"/>
<path d="M45.0283 46.3154H61.3535V41.9173H51.1409L61.0925 32.2266V28.2198H45.3264V32.4316H54.9426L45.0283 42.1223V46.3154Z" fill="#252525"/>
<path d="M83.2314 28.2198H78.3674V37.5378C78.3674 39.0784 78.0009 40.2898 77.2679 41.1719C76.5473 42.054 75.541 42.495 74.2489 42.495C73.1804 42.495 72.3604 42.1534 71.7889 41.4701C71.2174 40.7743 70.9316 39.7804 70.9316 38.4883V28.2198H66.049V39.7183C66.049 41.967 66.6578 43.694 67.8753 44.8991C69.1053 46.0918 70.7763 46.6882 72.8884 46.6882C74.1432 46.6882 75.249 46.421 76.2056 45.8868C77.1623 45.3401 77.8829 44.5947 78.3674 43.6505V46.3154H83.2314V28.2198Z" fill="#252525"/>
<path d="M106.246 28.2198H101.289L96.3318 38.5256L91.6728 28.2198H86.5479L93.7973 43.7623L88.952 53.8817H93.9278L106.246 28.2198Z" fill="#252525"/>
<path d="M114.65 28.2198H109.768V46.3154H114.65V28.2198Z" fill="#252525"/>
<path d="M109.619 20.3554V25.5176H114.837V20.3554H109.619Z" fill="#252525"/>
<path fill-rule="evenodd" clip-rule="evenodd" d="M0 20.8C0 9.31248 9.31248 0 20.8 0H122.2C133.688 0 143 9.31248 143 20.8V49.2C143 60.6875 133.688 70 122.2 70H20.8C9.31248 70 0 60.6875 0 49.2V20.8ZM20.8 5.2H122.2C130.816 5.2 137.8 12.1844 137.8 20.8V49.2C137.8 57.8156 130.816 64.8 122.2 64.8H20.8C12.1844 64.8 5.2 57.8156 5.2 49.2V20.8C5.2 12.1844 12.1844 5.2 20.8 5.2Z" fill="#252525"/>
</g>
<defs>
<clipPath id="clip0_1664_117645">
<rect width="143" height="70" fill="white"/>
</clipPath>
</defs>
</svg>
