<svg width="874" height="342" viewBox="0 0 874 342" fill="none" xmlns="http://www.w3.org/2000/svg">
<g clip-path="url(#clip0_1664_117647)">
<path d="M393.064 33.6064V41.7894C393.064 43.8543 393.663 45.4795 394.861 46.6648C396.072 47.8502 397.793 48.4429 400.024 48.4429C401.974 48.4429 403.554 47.9076 404.765 46.8369C405.976 45.7662 406.709 44.2558 406.964 42.3057L402.337 41.4453C402.184 43.166 401.451 44.0264 400.138 44.0264C399.501 44.0264 398.991 43.8288 398.609 43.4337C398.226 43.0386 398.035 42.4905 398.035 41.7894V33.6064H404.995V29.4958H398.035V23.3967H393.064V29.4958H389.221V33.6064H393.064Z" fill="#252525"/>
<path d="M410.137 48.0605H426.885V43.5484H416.408L426.618 33.6064V29.4958H410.443V33.8167H420.308L410.137 43.7587V48.0605Z" fill="#252525"/>
<path d="M449.33 29.4958H444.34V39.0554C444.34 40.6359 443.964 41.8787 443.212 42.7836C442.473 43.6886 441.441 44.1411 440.115 44.1411C439.019 44.1411 438.178 43.7906 437.591 43.0895C437.005 42.3758 436.712 41.3561 436.712 40.0305V29.4958H431.703V41.2923C431.703 43.5994 432.327 45.3711 433.576 46.6075C434.838 47.8311 436.552 48.4429 438.719 48.4429C440.007 48.4429 441.141 48.1689 442.123 47.6208C443.104 47.06 443.843 46.2952 444.34 45.3265V48.0605H449.33V29.4958Z" fill="#252525"/>
<path d="M472.942 29.4958H467.856L462.771 40.0687L457.991 29.4958H452.733L460.17 45.4412L455.199 55.823H460.304L472.942 29.4958Z" fill="#252525"/>
<path d="M481.564 29.4958H476.555V48.0605H481.564V29.4958Z" fill="#252525"/>
<path d="M476.402 21.4275V26.7235H481.755V21.4275H476.402Z" fill="#252525"/>
<path fill-rule="evenodd" clip-rule="evenodd" d="M363.646 21.8627C363.646 10.0774 373.2 0.523438 384.986 0.523438H489.015C500.8 0.523438 510.354 10.0774 510.354 21.8627V50.1373C510.354 61.9226 500.8 71.4766 489.015 71.4766H384.986C373.2 71.4766 363.646 61.9226 363.646 50.1373V21.8627ZM384.986 5.85826H489.015C497.854 5.85826 505.019 13.0237 505.019 21.8627V50.1373C505.019 58.9763 497.854 66.1417 489.015 66.1417H384.986C376.147 66.1417 368.981 58.9763 368.981 50.1373V21.8627C368.981 13.0237 376.147 5.85826 384.986 5.85826Z" fill="#252525"/>
<path d="M119.715 162.156H85.2422V190.477H71.7168V120.457H85.2422V149.998H119.715V120.457H133.24V190.477H119.715V162.156ZM146.131 143.064H158.924V190.477H146.131V143.064ZM145.74 135.984V122.459H159.412V135.984H145.74ZM168.445 202.293L169.715 195.994C170.887 196.645 172.384 196.971 174.207 196.971C175.542 196.971 176.567 196.694 177.283 196.141C178.032 195.587 178.406 194.806 178.406 193.797C178.406 192.788 178.064 191.974 177.381 191.355C176.73 190.77 175.786 190.477 174.549 190.477H170.936V176.463H184.949V193.797C184.949 200.242 181.45 203.465 174.451 203.465C171.945 203.465 169.943 203.074 168.445 202.293ZM221.131 190.477V120.457H234.656V190.477H221.131ZM244.764 120.457H258.777V137.693C258.777 144.204 255.099 147.459 247.742 147.459H242.762V140.965H247.889C249.321 140.965 250.411 140.672 251.16 140.086C251.909 139.5 252.283 138.702 252.283 137.693C252.283 136.684 251.925 135.903 251.209 135.35C250.525 134.764 249.581 134.471 248.377 134.471H244.764V120.457ZM269.178 143.064H281.971V148.875C284.38 144.35 288.286 142.088 293.689 142.088C296.619 142.088 299.158 142.853 301.307 144.383C303.455 145.88 305.018 148.077 305.994 150.975C307.361 148.012 309.217 145.799 311.561 144.334C313.904 142.837 316.606 142.088 319.666 142.088C324.549 142.088 328.406 143.536 331.238 146.434C334.07 149.298 335.486 153.318 335.486 158.494V190.477H322.693V160.887C322.693 158.348 322.042 156.346 320.74 154.881C319.438 153.416 317.745 152.684 315.662 152.684C313.481 152.684 311.772 153.449 310.535 154.979C309.298 156.508 308.68 158.641 308.68 161.375V190.477H295.984V160.887C295.984 158.413 295.333 156.476 294.031 155.076C292.762 153.676 291.069 152.977 288.953 152.977C286.87 152.977 285.177 153.758 283.875 155.32C282.605 156.883 281.971 159.064 281.971 161.863V190.477H269.178V143.064ZM430.604 120.457V132.957H405.945V190.477H392.42V132.957H367.615V120.457H430.604ZM474.109 190.477H431.336V179.49L457.312 154.1H432.117V143.064H473.426V153.562L447.352 178.953H474.109V190.477ZM516.688 143.064H529.432V190.477H516.688V183.494C515.418 185.968 513.53 187.921 511.023 189.354C508.517 190.753 505.62 191.453 502.332 191.453C496.798 191.453 492.42 189.891 489.197 186.766C486.007 183.608 484.412 179.083 484.412 173.191V143.064H497.205V169.969C497.205 173.354 497.954 175.958 499.451 177.781C500.949 179.572 503.097 180.467 505.896 180.467C509.282 180.467 511.919 179.311 513.807 177C515.727 174.689 516.688 171.515 516.688 167.479V143.064ZM574.744 143.064H587.732L555.457 210.301H542.42L555.115 183.787L536.121 143.064H549.549L561.756 170.066L574.744 143.064ZM594.959 143.064H607.752V190.477H594.959V143.064ZM594.568 135.984V122.459H608.24V135.984H594.568ZM644.178 120.457H657.703V177.977H698.377V190.477H644.178V120.457ZM741.932 172.361L752.82 176.658C751.128 181.313 748.393 184.943 744.617 187.547C740.841 190.151 736.219 191.453 730.75 191.453C723.361 191.453 717.322 189.158 712.635 184.568C707.98 179.946 705.652 173.908 705.652 166.453C705.652 161.961 706.629 157.876 708.582 154.197C710.535 150.486 713.318 147.54 716.932 145.359C720.577 143.178 724.679 142.088 729.236 142.088C735.812 142.088 741.118 144.025 745.154 147.898C749.223 151.772 751.258 156.932 751.258 163.377C751.258 165.298 751.046 167.234 750.623 169.188H718.445C718.478 172.671 719.682 175.421 722.059 177.439C724.467 179.458 727.43 180.467 730.945 180.467C736.772 180.467 740.434 177.765 741.932 172.361ZM718.445 160.691H738.758L738.855 160.301C738.855 157.924 737.96 156.02 736.17 154.588C734.412 153.123 732.101 152.391 729.236 152.391C726.6 152.391 724.288 153.139 722.303 154.637C720.317 156.134 719.031 158.152 718.445 160.691ZM795.35 172.361L806.238 176.658C804.546 181.313 801.811 184.943 798.035 187.547C794.259 190.151 789.637 191.453 784.168 191.453C776.779 191.453 770.74 189.158 766.053 184.568C761.398 179.946 759.07 173.908 759.07 166.453C759.07 161.961 760.047 157.876 762 154.197C763.953 150.486 766.736 147.54 770.35 145.359C773.995 143.178 778.097 142.088 782.654 142.088C789.23 142.088 794.536 144.025 798.572 147.898C802.641 151.772 804.676 156.932 804.676 163.377C804.676 165.298 804.464 167.234 804.041 169.188H771.863C771.896 172.671 773.1 175.421 775.477 177.439C777.885 179.458 780.848 180.467 784.363 180.467C790.19 180.467 793.852 177.765 795.35 172.361ZM771.863 160.691H792.176L792.273 160.301C792.273 157.924 791.378 156.02 789.588 154.588C787.83 153.123 785.519 152.391 782.654 152.391C780.018 152.391 777.706 153.139 775.721 154.637C773.735 156.134 772.449 158.152 771.863 160.691Z" fill="#252525"/>
<path d="M27.8398 261.471H30.5938V279.869H43.4404V282.477H27.8398V261.471ZM47.7471 280.675C46.4092 279.269 45.7402 277.501 45.7402 275.372C45.7402 273.243 46.4092 271.476 47.7471 270.069C49.085 268.663 50.8135 267.96 52.9326 267.96C54.3486 267.96 55.6084 268.287 56.7119 268.941C57.8154 269.586 58.665 270.47 59.2607 271.593C59.8662 272.716 60.1689 273.976 60.1689 275.372C60.1689 277.491 59.4902 279.254 58.1328 280.66C56.7754 282.066 55.042 282.77 52.9326 282.77C50.8135 282.77 49.085 282.071 47.7471 280.675ZM57.5029 275.372C57.5029 273.868 57.0732 272.657 56.2139 271.739C55.3838 270.782 54.29 270.304 52.9326 270.304C51.6143 270.304 50.5254 270.777 49.666 271.725C48.8066 272.672 48.377 273.888 48.377 275.372C48.377 276.856 48.8066 278.072 49.666 279.02C50.5254 279.967 51.6143 280.44 52.9326 280.44C54.2705 280.44 55.3643 279.972 56.2139 279.034C57.0732 278.087 57.5029 276.866 57.5029 275.372ZM63.2744 268.253H65.8525V270.333C66.165 269.571 66.6338 268.985 67.2588 268.575C67.8838 268.165 68.626 267.96 69.4854 267.96C70.6279 267.96 71.5605 268.331 72.2832 269.073C73.0156 269.815 73.3818 270.733 73.3818 271.827C73.3818 272.403 73.3232 272.936 73.2061 273.424H70.6865C70.7451 272.994 70.7744 272.643 70.7744 272.369C70.7744 271.705 70.5693 271.183 70.1592 270.802C69.7588 270.421 69.207 270.23 68.5039 270.23C67.7031 270.23 67.0586 270.523 66.5703 271.109C66.0918 271.695 65.8525 272.467 65.8525 273.424V282.477H63.2744V268.253ZM86.6387 277.32L88.8799 278.185C88.3916 279.659 87.6104 280.792 86.5361 281.583C85.4619 282.374 84.124 282.77 82.5225 282.77C80.4131 282.77 78.6895 282.086 77.3516 280.719C76.0234 279.352 75.3594 277.535 75.3594 275.27C75.3594 273.912 75.6377 272.682 76.1943 271.578C76.7607 270.465 77.5615 269.586 78.5967 268.941C79.6416 268.287 80.8232 267.96 82.1416 267.96C84.0459 267.96 85.5742 268.507 86.7266 269.601C87.8887 270.675 88.4697 272.145 88.4697 274.01C88.4697 274.635 88.4111 275.216 88.2939 275.753H77.9961C78.0059 277.247 78.4355 278.414 79.2852 279.254C80.1348 280.084 81.2139 280.499 82.5225 280.499C84.6709 280.499 86.043 279.439 86.6387 277.32ZM77.9961 273.893H85.8916L85.9209 273.482C85.9209 272.486 85.5596 271.695 84.8369 271.109C84.124 270.523 83.2158 270.23 82.1123 270.23C81.0088 270.23 80.0762 270.562 79.3145 271.227C78.5625 271.881 78.123 272.77 77.9961 273.893ZM91.8975 268.253H94.4756V270.26C95.2275 268.727 96.5068 267.96 98.3135 267.96C99.1924 267.96 99.959 268.204 100.613 268.692C101.268 269.181 101.712 269.874 101.946 270.772C102.317 269.884 102.874 269.195 103.616 268.707C104.368 268.209 105.203 267.96 106.121 267.96C107.459 267.96 108.514 268.365 109.285 269.176C110.057 269.977 110.442 271.119 110.442 272.604V282.477H107.864V273.146C107.864 272.276 107.62 271.588 107.132 271.08C106.653 270.562 106.028 270.304 105.257 270.304C104.446 270.304 103.777 270.597 103.25 271.183C102.723 271.759 102.459 272.574 102.459 273.629V282.477H99.8516V273.263C99.8516 272.315 99.6172 271.588 99.1484 271.08C98.6797 270.562 98.0449 270.304 97.2441 270.304C96.4336 270.304 95.7695 270.606 95.252 271.212C94.7344 271.808 94.4756 272.662 94.4756 273.775V282.477H91.8975V268.253ZM121.81 268.253H124.388V282.477H121.81V268.253ZM121.663 265.616V262.584H124.549V265.616H121.663ZM128.401 268.253H130.862V270.934C131.331 270.064 132.034 269.352 132.972 268.795C133.919 268.238 134.915 267.96 135.96 267.96C137.884 267.96 139.446 268.648 140.647 270.025C141.849 271.393 142.449 273.175 142.449 275.372C142.449 277.56 141.824 279.342 140.574 280.719C139.324 282.086 137.728 282.77 135.784 282.77C134.759 282.77 133.821 282.55 132.972 282.11C132.122 281.661 131.458 281.041 130.979 280.25V288.424H128.401V268.253ZM135.359 280.47C136.6 280.47 137.659 280.021 138.538 279.122C139.427 278.214 139.871 276.974 139.871 275.401C139.871 273.839 139.427 272.599 138.538 271.681C137.659 270.763 136.6 270.304 135.359 270.304C134.178 270.304 133.133 270.777 132.225 271.725C131.316 272.672 130.862 273.897 130.862 275.401C130.862 276.905 131.316 278.126 132.225 279.063C133.133 280.001 134.178 280.47 135.359 280.47ZM144.588 278.756L146.712 277.643C147.112 278.648 147.649 279.376 148.323 279.825C148.997 280.274 149.871 280.499 150.945 280.499C151.883 280.499 152.625 280.313 153.172 279.942C153.729 279.562 154.007 279.059 154.007 278.434C154.007 277.74 153.729 277.203 153.172 276.822C152.625 276.432 151.653 276.139 150.257 275.943C146.995 275.465 145.364 274.103 145.364 271.856C145.364 270.714 145.843 269.786 146.8 269.073C147.786 268.331 149.017 267.96 150.491 267.96C153.001 267.96 154.71 269.01 155.618 271.109L153.611 272.223C153.123 270.777 152.083 270.055 150.491 270.055C149.7 270.055 149.041 270.226 148.514 270.567C147.996 270.899 147.737 271.339 147.737 271.886C147.737 272.491 148.021 272.955 148.587 273.277C149.153 273.6 150.14 273.858 151.546 274.054C154.866 274.503 156.526 275.909 156.526 278.272C156.526 279.581 155.979 280.66 154.886 281.51C153.802 282.35 152.449 282.77 150.828 282.77C149.256 282.77 147.928 282.413 146.844 281.7C145.77 280.978 145.018 279.996 144.588 278.756ZM169.505 268.253H172.112V282.477H169.505V280.074C169.007 280.924 168.357 281.588 167.557 282.066C166.766 282.535 165.862 282.77 164.847 282.77C163.265 282.77 162.02 282.306 161.111 281.378C160.203 280.44 159.749 279.107 159.749 277.379V268.253H162.327V276.778C162.327 278.009 162.601 278.937 163.147 279.562C163.694 280.187 164.49 280.499 165.535 280.499C166.688 280.499 167.635 280.069 168.377 279.21C169.129 278.351 169.505 277.218 169.505 275.812V268.253ZM176.097 268.253H178.675V270.26C179.427 268.727 180.706 267.96 182.513 267.96C183.392 267.96 184.158 268.204 184.812 268.692C185.467 269.181 185.911 269.874 186.146 270.772C186.517 269.884 187.073 269.195 187.815 268.707C188.567 268.209 189.402 267.96 190.32 267.96C191.658 267.96 192.713 268.365 193.484 269.176C194.256 269.977 194.642 271.119 194.642 272.604V282.477H192.063V273.146C192.063 272.276 191.819 271.588 191.331 271.08C190.853 270.562 190.228 270.304 189.456 270.304C188.646 270.304 187.977 270.597 187.449 271.183C186.922 271.759 186.658 272.574 186.658 273.629V282.477H184.051V273.263C184.051 272.315 183.816 271.588 183.348 271.08C182.879 270.562 182.244 270.304 181.443 270.304C180.633 270.304 179.969 270.606 179.451 271.212C178.934 271.808 178.675 272.662 178.675 273.775V282.477H176.097V268.253ZM205.145 275.46C205.145 273.253 205.76 271.451 206.99 270.055C208.221 268.658 209.803 267.96 211.736 267.96C212.82 267.96 213.782 268.214 214.622 268.722C215.472 269.229 216.131 269.933 216.6 270.831V261.471H219.207V282.477H216.717V279.928C216.229 280.797 215.55 281.49 214.681 282.008C213.812 282.516 212.85 282.77 211.795 282.77C209.832 282.77 208.23 282.096 206.99 280.748C205.76 279.391 205.145 277.628 205.145 275.46ZM216.717 275.431C216.717 273.927 216.263 272.696 215.354 271.739C214.446 270.782 213.401 270.304 212.22 270.304C211.009 270.304 209.954 270.777 209.056 271.725C208.167 272.662 207.723 273.897 207.723 275.431C207.723 276.974 208.162 278.199 209.041 279.107C209.93 280.016 210.989 280.47 212.22 280.47C212.786 280.47 213.333 280.357 213.86 280.133C214.397 279.898 214.876 279.571 215.296 279.151C215.726 278.731 216.067 278.199 216.321 277.555C216.585 276.91 216.717 276.202 216.717 275.431ZM224.349 280.675C223.011 279.269 222.342 277.501 222.342 275.372C222.342 273.243 223.011 271.476 224.349 270.069C225.687 268.663 227.415 267.96 229.534 267.96C230.95 267.96 232.21 268.287 233.313 268.941C234.417 269.586 235.267 270.47 235.862 271.593C236.468 272.716 236.771 273.976 236.771 275.372C236.771 277.491 236.092 279.254 234.734 280.66C233.377 282.066 231.644 282.77 229.534 282.77C227.415 282.77 225.687 282.071 224.349 280.675ZM234.104 275.372C234.104 273.868 233.675 272.657 232.815 271.739C231.985 270.782 230.892 270.304 229.534 270.304C228.216 270.304 227.127 270.777 226.268 271.725C225.408 272.672 224.979 273.888 224.979 275.372C224.979 276.856 225.408 278.072 226.268 279.02C227.127 279.967 228.216 280.44 229.534 280.44C230.872 280.44 231.966 279.972 232.815 279.034C233.675 278.087 234.104 276.866 234.104 275.372ZM239.876 282.477V261.471H242.454V282.477H239.876ZM247.61 280.675C246.272 279.269 245.604 277.501 245.604 275.372C245.604 273.243 246.272 271.476 247.61 270.069C248.948 268.663 250.677 267.96 252.796 267.96C254.212 267.96 255.472 268.287 256.575 268.941C257.679 269.586 258.528 270.47 259.124 271.593C259.729 272.716 260.032 273.976 260.032 275.372C260.032 277.491 259.354 279.254 257.996 280.66C256.639 282.066 254.905 282.77 252.796 282.77C250.677 282.77 248.948 282.071 247.61 280.675ZM257.366 275.372C257.366 273.868 256.937 272.657 256.077 271.739C255.247 270.782 254.153 270.304 252.796 270.304C251.478 270.304 250.389 270.777 249.529 271.725C248.67 272.672 248.24 273.888 248.24 275.372C248.24 276.856 248.67 278.072 249.529 279.02C250.389 279.967 251.478 280.44 252.796 280.44C254.134 280.44 255.228 279.972 256.077 279.034C256.937 278.087 257.366 276.866 257.366 275.372ZM263.138 268.253H265.716V270.333C266.028 269.571 266.497 268.985 267.122 268.575C267.747 268.165 268.489 267.96 269.349 267.96C270.491 267.96 271.424 268.331 272.146 269.073C272.879 269.815 273.245 270.733 273.245 271.827C273.245 272.403 273.187 272.936 273.069 273.424H270.55C270.608 272.994 270.638 272.643 270.638 272.369C270.638 271.705 270.433 271.183 270.022 270.802C269.622 270.421 269.07 270.23 268.367 270.23C267.566 270.23 266.922 270.523 266.434 271.109C265.955 271.695 265.716 272.467 265.716 273.424V282.477H263.138V268.253ZM282.693 278.756L284.817 277.643C285.218 278.648 285.755 279.376 286.429 279.825C287.103 280.274 287.977 280.499 289.051 280.499C289.988 280.499 290.73 280.313 291.277 279.942C291.834 279.562 292.112 279.059 292.112 278.434C292.112 277.74 291.834 277.203 291.277 276.822C290.73 276.432 289.759 276.139 288.362 275.943C285.101 275.465 283.47 274.103 283.47 271.856C283.47 270.714 283.948 269.786 284.905 269.073C285.892 268.331 287.122 267.96 288.597 267.96C291.106 267.96 292.815 269.01 293.724 271.109L291.717 272.223C291.229 270.777 290.188 270.055 288.597 270.055C287.806 270.055 287.146 270.226 286.619 270.567C286.102 270.899 285.843 271.339 285.843 271.886C285.843 272.491 286.126 272.955 286.692 273.277C287.259 273.6 288.245 273.858 289.651 274.054C292.972 274.503 294.632 275.909 294.632 278.272C294.632 279.581 294.085 280.66 292.991 281.51C291.907 282.35 290.555 282.77 288.934 282.77C287.361 282.77 286.033 282.413 284.949 281.7C283.875 280.978 283.123 279.996 282.693 278.756ZM297.854 268.253H300.433V282.477H297.854V268.253ZM297.708 265.616V262.584H300.594V265.616H297.708ZM305.955 278.243V270.45H303.128V268.253H305.955V263.844H308.562V268.253H313.66V270.45H308.562V278.36C308.562 279.015 308.743 279.537 309.104 279.928C309.476 280.309 309.944 280.499 310.511 280.499C311.116 280.499 311.59 280.323 311.932 279.972C312.283 279.61 312.518 279.044 312.635 278.272L315.037 278.814C314.842 280.084 314.358 281.061 313.587 281.744C312.815 282.428 311.819 282.77 310.599 282.77C309.104 282.77 307.957 282.374 307.156 281.583C306.355 280.792 305.955 279.679 305.955 278.243ZM324.588 278.434C324.588 277.018 325.071 275.929 326.038 275.167C327.005 274.396 328.284 274.01 329.876 274.01C330.892 274.01 331.897 274.161 332.894 274.464L334.197 274.83V273.351C334.197 272.335 333.87 271.549 333.216 270.992C332.571 270.426 331.707 270.143 330.623 270.143C329.607 270.143 328.768 270.406 328.104 270.934C327.449 271.451 327.029 272.169 326.844 273.087L324.5 272.428C324.793 271.051 325.477 269.962 326.551 269.161C327.625 268.36 328.982 267.96 330.623 267.96C332.547 267.96 334.036 268.453 335.091 269.439C336.155 270.426 336.688 271.803 336.688 273.57V282.477H334.197V280.221C333.836 280.992 333.211 281.612 332.322 282.081C331.443 282.54 330.438 282.77 329.305 282.77C327.977 282.77 326.854 282.384 325.936 281.612C325.037 280.802 324.588 279.742 324.588 278.434ZM334.197 277.174V276.866L332.864 276.471C331.868 276.178 330.989 276.031 330.228 276.031C329.3 276.031 328.572 276.227 328.045 276.617C327.518 276.998 327.254 277.55 327.254 278.272C327.254 278.946 327.508 279.488 328.016 279.898C328.523 280.299 329.241 280.499 330.169 280.499C331.37 280.499 332.342 280.201 333.084 279.605C333.826 279 334.197 278.189 334.197 277.174ZM340.687 268.253H343.265V270.26C344.017 268.727 345.296 267.96 347.103 267.96C347.981 267.96 348.748 268.204 349.402 268.692C350.057 269.181 350.501 269.874 350.735 270.772C351.106 269.884 351.663 269.195 352.405 268.707C353.157 268.209 353.992 267.96 354.91 267.96C356.248 267.96 357.303 268.365 358.074 269.176C358.846 269.977 359.231 271.119 359.231 272.604V282.477H356.653V273.146C356.653 272.276 356.409 271.588 355.921 271.08C355.442 270.562 354.817 270.304 354.046 270.304C353.235 270.304 352.566 270.597 352.039 271.183C351.512 271.759 351.248 272.574 351.248 273.629V282.477H348.641V273.263C348.641 272.315 348.406 271.588 347.938 271.08C347.469 270.562 346.834 270.304 346.033 270.304C345.223 270.304 344.559 270.606 344.041 271.212C343.523 271.808 343.265 272.662 343.265 273.775V282.477H340.687V268.253ZM373.66 277.32L375.901 278.185C375.413 279.659 374.632 280.792 373.558 281.583C372.483 282.374 371.146 282.77 369.544 282.77C367.435 282.77 365.711 282.086 364.373 280.719C363.045 279.352 362.381 277.535 362.381 275.27C362.381 273.912 362.659 272.682 363.216 271.578C363.782 270.465 364.583 269.586 365.618 268.941C366.663 268.287 367.845 267.96 369.163 267.96C371.067 267.96 372.596 268.507 373.748 269.601C374.91 270.675 375.491 272.145 375.491 274.01C375.491 274.635 375.433 275.216 375.315 275.753H365.018C365.027 277.247 365.457 278.414 366.307 279.254C367.156 280.084 368.235 280.499 369.544 280.499C371.692 280.499 373.064 279.439 373.66 277.32ZM365.018 273.893H372.913L372.942 273.482C372.942 272.486 372.581 271.695 371.858 271.109C371.146 270.523 370.237 270.23 369.134 270.23C368.03 270.23 367.098 270.562 366.336 271.227C365.584 271.881 365.145 272.77 365.018 273.893ZM380.369 278.243V270.45H377.542V268.253H380.369V263.844H382.977V268.253H388.074V270.45H382.977V278.36C382.977 279.015 383.157 279.537 383.519 279.928C383.89 280.309 384.358 280.499 384.925 280.499C385.53 280.499 386.004 280.323 386.346 279.972C386.697 279.61 386.932 279.044 387.049 278.272L389.451 278.814C389.256 280.084 388.772 281.061 388.001 281.744C387.229 282.428 386.233 282.77 385.013 282.77C383.519 282.77 382.371 282.374 381.57 281.583C380.77 280.792 380.369 279.679 380.369 278.243ZM391.297 285.567L391.561 284.132C391.932 284.308 392.322 284.396 392.732 284.396C393.514 284.396 393.904 284.063 393.904 283.399C393.904 282.784 393.543 282.477 392.82 282.477H392.278V279.327H395.398V283.253C395.398 284.972 394.52 285.831 392.762 285.831C392.234 285.831 391.746 285.743 391.297 285.567ZM413.299 280.499C414.627 280.499 415.667 280.138 416.419 279.415C417.181 278.683 417.708 277.623 418.001 276.236L420.315 277.101C419.915 278.897 419.104 280.294 417.884 281.29C416.663 282.276 415.154 282.77 413.357 282.77C411.121 282.77 409.314 282.081 407.938 280.704C406.57 279.327 405.887 277.516 405.887 275.27C405.887 274.225 406.077 273.248 406.458 272.34C406.839 271.422 407.352 270.646 407.996 270.011C408.641 269.376 409.397 268.878 410.267 268.517C411.146 268.146 412.063 267.96 413.021 267.96C414.749 267.96 416.194 268.414 417.356 269.322C418.528 270.221 419.285 271.476 419.627 273.087L417.254 273.805C417.029 272.672 416.551 271.793 415.818 271.168C415.086 270.543 414.144 270.23 412.991 270.23C412.435 270.23 411.888 270.343 411.351 270.567C410.813 270.792 410.32 271.109 409.871 271.52C409.432 271.93 409.075 272.462 408.802 273.116C408.538 273.771 408.406 274.488 408.406 275.27C408.406 276.803 408.89 278.058 409.856 279.034C410.833 280.011 411.98 280.499 413.299 280.499ZM424.388 280.675C423.05 279.269 422.381 277.501 422.381 275.372C422.381 273.243 423.05 271.476 424.388 270.069C425.726 268.663 427.454 267.96 429.573 267.96C430.989 267.96 432.249 268.287 433.353 268.941C434.456 269.586 435.306 270.47 435.901 271.593C436.507 272.716 436.81 273.976 436.81 275.372C436.81 277.491 436.131 279.254 434.773 280.66C433.416 282.066 431.683 282.77 429.573 282.77C427.454 282.77 425.726 282.071 424.388 280.675ZM434.144 275.372C434.144 273.868 433.714 272.657 432.854 271.739C432.024 270.782 430.931 270.304 429.573 270.304C428.255 270.304 427.166 270.777 426.307 271.725C425.447 272.672 425.018 273.888 425.018 275.372C425.018 276.856 425.447 278.072 426.307 279.02C427.166 279.967 428.255 280.44 429.573 280.44C430.911 280.44 432.005 279.972 432.854 279.034C433.714 278.087 434.144 276.866 434.144 275.372ZM442.493 282.477H439.915V268.253H442.493V270.567C442.991 269.737 443.646 269.098 444.456 268.648C445.276 268.189 446.185 267.96 447.181 267.96C448.714 267.96 449.93 268.429 450.828 269.366C451.736 270.294 452.19 271.583 452.19 273.233V282.477H449.583V274.01C449.583 272.779 449.3 271.842 448.733 271.197C448.167 270.553 447.366 270.23 446.331 270.23C445.228 270.23 444.31 270.641 443.577 271.461C442.854 272.271 442.493 273.346 442.493 274.684V282.477ZM455.193 278.756L457.317 277.643C457.718 278.648 458.255 279.376 458.929 279.825C459.603 280.274 460.477 280.499 461.551 280.499C462.488 280.499 463.23 280.313 463.777 279.942C464.334 279.562 464.612 279.059 464.612 278.434C464.612 277.74 464.334 277.203 463.777 276.822C463.23 276.432 462.259 276.139 460.862 275.943C457.601 275.465 455.97 274.103 455.97 271.856C455.97 270.714 456.448 269.786 457.405 269.073C458.392 268.331 459.622 267.96 461.097 267.96C463.606 267.96 465.315 269.01 466.224 271.109L464.217 272.223C463.729 270.777 462.688 270.055 461.097 270.055C460.306 270.055 459.646 270.226 459.119 270.567C458.602 270.899 458.343 271.339 458.343 271.886C458.343 272.491 458.626 272.955 459.192 273.277C459.759 273.6 460.745 273.858 462.151 274.054C465.472 274.503 467.132 275.909 467.132 278.272C467.132 279.581 466.585 280.66 465.491 281.51C464.407 282.35 463.055 282.77 461.434 282.77C459.861 282.77 458.533 282.413 457.449 281.7C456.375 280.978 455.623 279.996 455.193 278.756ZM480.652 277.32L482.894 278.185C482.405 279.659 481.624 280.792 480.55 281.583C479.476 282.374 478.138 282.77 476.536 282.77C474.427 282.77 472.703 282.086 471.365 280.719C470.037 279.352 469.373 277.535 469.373 275.27C469.373 273.912 469.651 272.682 470.208 271.578C470.774 270.465 471.575 269.586 472.61 268.941C473.655 268.287 474.837 267.96 476.155 267.96C478.06 267.96 479.588 268.507 480.74 269.601C481.902 270.675 482.483 272.145 482.483 274.01C482.483 274.635 482.425 275.216 482.308 275.753H472.01C472.02 277.247 472.449 278.414 473.299 279.254C474.148 280.084 475.228 280.499 476.536 280.499C478.685 280.499 480.057 279.439 480.652 277.32ZM472.01 273.893H479.905L479.935 273.482C479.935 272.486 479.573 271.695 478.851 271.109C478.138 270.523 477.229 270.23 476.126 270.23C475.022 270.23 474.09 270.562 473.328 271.227C472.576 271.881 472.137 272.77 472.01 273.893ZM492.459 280.499C493.787 280.499 494.827 280.138 495.579 279.415C496.341 278.683 496.868 277.623 497.161 276.236L499.476 277.101C499.075 278.897 498.265 280.294 497.044 281.29C495.823 282.276 494.314 282.77 492.518 282.77C490.281 282.77 488.475 282.081 487.098 280.704C485.73 279.327 485.047 277.516 485.047 275.27C485.047 274.225 485.237 273.248 485.618 272.34C485.999 271.422 486.512 270.646 487.156 270.011C487.801 269.376 488.558 268.878 489.427 268.517C490.306 268.146 491.224 267.96 492.181 267.96C493.909 267.96 495.354 268.414 496.517 269.322C497.688 270.221 498.445 271.476 498.787 273.087L496.414 273.805C496.189 272.672 495.711 271.793 494.979 271.168C494.246 270.543 493.304 270.23 492.151 270.23C491.595 270.23 491.048 270.343 490.511 270.567C489.974 270.792 489.48 271.109 489.031 271.52C488.592 271.93 488.235 272.462 487.962 273.116C487.698 273.771 487.566 274.488 487.566 275.27C487.566 276.803 488.05 278.058 489.017 279.034C489.993 280.011 491.141 280.499 492.459 280.499ZM503.562 278.243V270.45H500.735V268.253H503.562V263.844H506.17V268.253H511.268V270.45H506.17V278.36C506.17 279.015 506.351 279.537 506.712 279.928C507.083 280.309 507.552 280.499 508.118 280.499C508.724 280.499 509.197 280.323 509.539 279.972C509.891 279.61 510.125 279.044 510.242 278.272L512.645 278.814C512.449 280.084 511.966 281.061 511.194 281.744C510.423 282.428 509.427 282.77 508.206 282.77C506.712 282.77 505.564 282.374 504.764 281.583C503.963 280.792 503.562 279.679 503.562 278.243ZM525.271 277.32L527.513 278.185C527.024 279.659 526.243 280.792 525.169 281.583C524.095 282.374 522.757 282.77 521.155 282.77C519.046 282.77 517.322 282.086 515.984 280.719C514.656 279.352 513.992 277.535 513.992 275.27C513.992 273.912 514.271 272.682 514.827 271.578C515.394 270.465 516.194 269.586 517.229 268.941C518.274 268.287 519.456 267.96 520.774 267.96C522.679 267.96 524.207 268.507 525.359 269.601C526.521 270.675 527.103 272.145 527.103 274.01C527.103 274.635 527.044 275.216 526.927 275.753H516.629C516.639 277.247 517.068 278.414 517.918 279.254C518.768 280.084 519.847 280.499 521.155 280.499C523.304 280.499 524.676 279.439 525.271 277.32ZM516.629 273.893H524.524L524.554 273.482C524.554 272.486 524.192 271.695 523.47 271.109C522.757 270.523 521.849 270.23 520.745 270.23C519.642 270.23 518.709 270.562 517.947 271.227C517.195 271.881 516.756 272.77 516.629 273.893ZM531.98 278.243V270.45H529.153V268.253H531.98V263.844H534.588V268.253H539.686V270.45H534.588V278.36C534.588 279.015 534.769 279.537 535.13 279.928C535.501 280.309 535.97 280.499 536.536 280.499C537.142 280.499 537.615 280.323 537.957 279.972C538.309 279.61 538.543 279.044 538.66 278.272L541.062 278.814C540.867 280.084 540.384 281.061 539.612 281.744C538.841 282.428 537.845 282.77 536.624 282.77C535.13 282.77 533.982 282.374 533.182 281.583C532.381 280.792 531.98 279.679 531.98 278.243ZM553.382 268.253H555.989V282.477H553.382V280.074C552.884 280.924 552.234 281.588 551.434 282.066C550.643 282.535 549.739 282.77 548.724 282.77C547.142 282.77 545.896 282.306 544.988 281.378C544.08 280.44 543.626 279.107 543.626 277.379V268.253H546.204V276.778C546.204 278.009 546.478 278.937 547.024 279.562C547.571 280.187 548.367 280.499 549.412 280.499C550.564 280.499 551.512 280.069 552.254 279.21C553.006 278.351 553.382 277.218 553.382 275.812V268.253ZM559.974 268.253H562.552V270.333C562.864 269.571 563.333 268.985 563.958 268.575C564.583 268.165 565.325 267.96 566.185 267.96C567.327 267.96 568.26 268.331 568.982 269.073C569.715 269.815 570.081 270.733 570.081 271.827C570.081 272.403 570.022 272.936 569.905 273.424H567.386C567.444 272.994 567.474 272.643 567.474 272.369C567.474 271.705 567.269 271.183 566.858 270.802C566.458 270.421 565.906 270.23 565.203 270.23C564.402 270.23 563.758 270.523 563.27 271.109C562.791 271.695 562.552 272.467 562.552 273.424V282.477H559.974V268.253ZM579.881 278.434C579.881 277.018 580.364 275.929 581.331 275.167C582.298 274.396 583.577 274.01 585.169 274.01C586.185 274.01 587.19 274.161 588.187 274.464L589.49 274.83V273.351C589.49 272.335 589.163 271.549 588.509 270.992C587.864 270.426 587 270.143 585.916 270.143C584.9 270.143 584.061 270.406 583.396 270.934C582.742 271.451 582.322 272.169 582.137 273.087L579.793 272.428C580.086 271.051 580.77 269.962 581.844 269.161C582.918 268.36 584.275 267.96 585.916 267.96C587.84 267.96 589.329 268.453 590.384 269.439C591.448 270.426 591.98 271.803 591.98 273.57V282.477H589.49V280.221C589.129 280.992 588.504 281.612 587.615 282.081C586.736 282.54 585.73 282.77 584.598 282.77C583.27 282.77 582.146 282.384 581.229 281.612C580.33 280.802 579.881 279.742 579.881 278.434ZM589.49 277.174V276.866L588.157 276.471C587.161 276.178 586.282 276.031 585.521 276.031C584.593 276.031 583.865 276.227 583.338 276.617C582.811 276.998 582.547 277.55 582.547 278.272C582.547 278.946 582.801 279.488 583.309 279.898C583.816 280.299 584.534 280.499 585.462 280.499C586.663 280.499 587.635 280.201 588.377 279.605C589.119 279 589.49 278.189 589.49 277.174ZM595.115 275.46C595.115 273.253 595.73 271.451 596.961 270.055C598.191 268.658 599.773 267.96 601.707 267.96C602.791 267.96 603.753 268.214 604.593 268.722C605.442 269.229 606.102 269.933 606.57 270.831V261.471H609.178V282.477H606.688V279.928C606.199 280.797 605.521 281.49 604.651 282.008C603.782 282.516 602.82 282.77 601.766 282.77C599.803 282.77 598.201 282.096 596.961 280.748C595.73 279.391 595.115 277.628 595.115 275.46ZM606.688 275.431C606.688 273.927 606.233 272.696 605.325 271.739C604.417 270.782 603.372 270.304 602.19 270.304C600.979 270.304 599.925 270.777 599.026 271.725C598.138 272.662 597.693 273.897 597.693 275.431C597.693 276.974 598.133 278.199 599.012 279.107C599.9 280.016 600.96 280.47 602.19 280.47C602.757 280.47 603.304 280.357 603.831 280.133C604.368 279.898 604.847 279.571 605.267 279.151C605.696 278.731 606.038 278.199 606.292 277.555C606.556 276.91 606.688 276.202 606.688 275.431ZM613.177 268.253H615.755V282.477H613.177V268.253ZM613.03 265.616V262.584H615.916V265.616H613.03ZM619.769 268.253H622.229V270.934C622.698 270.064 623.401 269.352 624.339 268.795C625.286 268.238 626.282 267.96 627.327 267.96C629.251 267.96 630.813 268.648 632.015 270.025C633.216 271.393 633.816 273.175 633.816 275.372C633.816 277.56 633.191 279.342 631.941 280.719C630.691 282.086 629.095 282.77 627.151 282.77C626.126 282.77 625.188 282.55 624.339 282.11C623.489 281.661 622.825 281.041 622.347 280.25V288.424H619.769V268.253ZM626.727 280.47C627.967 280.47 629.026 280.021 629.905 279.122C630.794 278.214 631.238 276.974 631.238 275.401C631.238 273.839 630.794 272.599 629.905 271.681C629.026 270.763 627.967 270.304 626.727 270.304C625.545 270.304 624.5 270.777 623.592 271.725C622.684 272.672 622.229 273.897 622.229 275.401C622.229 276.905 622.684 278.126 623.592 279.063C624.5 280.001 625.545 280.47 626.727 280.47ZM636.966 268.253H639.544V282.477H636.966V268.253ZM636.819 265.616V262.584H639.705V265.616H636.819ZM642.547 278.756L644.671 277.643C645.071 278.648 645.608 279.376 646.282 279.825C646.956 280.274 647.83 280.499 648.904 280.499C649.842 280.499 650.584 280.313 651.131 279.942C651.688 279.562 651.966 279.059 651.966 278.434C651.966 277.74 651.688 277.203 651.131 276.822C650.584 276.432 649.612 276.139 648.216 275.943C644.954 275.465 643.323 274.103 643.323 271.856C643.323 270.714 643.802 269.786 644.759 269.073C645.745 268.331 646.976 267.96 648.45 267.96C650.96 267.96 652.669 269.01 653.577 271.109L651.57 272.223C651.082 270.777 650.042 270.055 648.45 270.055C647.659 270.055 647 270.226 646.473 270.567C645.955 270.899 645.696 271.339 645.696 271.886C645.696 272.491 645.979 272.955 646.546 273.277C647.112 273.6 648.099 273.858 649.505 274.054C652.825 274.503 654.485 275.909 654.485 278.272C654.485 279.581 653.938 280.66 652.845 281.51C651.761 282.35 650.408 282.77 648.787 282.77C647.215 282.77 645.887 282.413 644.803 281.7C643.729 280.978 642.977 279.996 642.547 278.756ZM664.139 280.499C665.467 280.499 666.507 280.138 667.259 279.415C668.021 278.683 668.548 277.623 668.841 276.236L671.155 277.101C670.755 278.897 669.944 280.294 668.724 281.29C667.503 282.276 665.994 282.77 664.197 282.77C661.961 282.77 660.154 282.081 658.777 280.704C657.41 279.327 656.727 277.516 656.727 275.27C656.727 274.225 656.917 273.248 657.298 272.34C657.679 271.422 658.191 270.646 658.836 270.011C659.48 269.376 660.237 268.878 661.106 268.517C661.985 268.146 662.903 267.96 663.86 267.96C665.589 267.96 667.034 268.414 668.196 269.322C669.368 270.221 670.125 271.476 670.467 273.087L668.094 273.805C667.869 272.672 667.391 271.793 666.658 271.168C665.926 270.543 664.983 270.23 663.831 270.23C663.274 270.23 662.728 270.343 662.19 270.567C661.653 270.792 661.16 271.109 660.711 271.52C660.271 271.93 659.915 272.462 659.642 273.116C659.378 273.771 659.246 274.488 659.246 275.27C659.246 276.803 659.729 278.058 660.696 279.034C661.673 280.011 662.82 280.499 664.139 280.499ZM674.085 268.253H676.663V282.477H674.085V268.253ZM673.938 265.616V262.584H676.824V265.616H673.938ZM683.255 282.477H680.677V268.253H683.255V270.567C683.753 269.737 684.407 269.098 685.218 268.648C686.038 268.189 686.946 267.96 687.942 267.96C689.476 267.96 690.691 268.429 691.59 269.366C692.498 270.294 692.952 271.583 692.952 273.233V282.477H690.345V274.01C690.345 272.779 690.062 271.842 689.495 271.197C688.929 270.553 688.128 270.23 687.093 270.23C685.989 270.23 685.071 270.641 684.339 271.461C683.616 272.271 683.255 273.346 683.255 274.684V282.477ZM696.907 284.337L699.251 283.341C699.817 285.401 701.219 286.432 703.455 286.432C704.822 286.432 705.857 285.997 706.561 285.128C707.264 284.259 707.615 283.014 707.615 281.393V279.811C707.186 280.631 706.541 281.28 705.682 281.759C704.832 282.237 703.826 282.477 702.664 282.477C701.766 282.477 700.916 282.311 700.115 281.979C699.314 281.637 698.616 281.163 698.021 280.558C697.435 279.952 696.966 279.21 696.614 278.331C696.272 277.442 696.102 276.476 696.102 275.431C696.102 273.243 696.746 271.451 698.035 270.055C699.324 268.658 700.921 267.96 702.825 267.96C704.964 267.96 706.561 268.771 707.615 270.392V268.253H710.223V281.217C710.223 283.463 709.637 285.274 708.465 286.651C707.293 288.028 705.623 288.717 703.455 288.717C700.018 288.717 697.835 287.257 696.907 284.337ZM706.458 278.8C707.308 277.872 707.732 276.686 707.732 275.24C707.732 273.795 707.303 272.599 706.443 271.651C705.594 270.704 704.524 270.23 703.235 270.23C701.897 270.23 700.804 270.704 699.954 271.651C699.104 272.599 698.68 273.868 698.68 275.46C698.68 276.896 699.104 278.043 699.954 278.902C700.804 279.762 701.897 280.191 703.235 280.191C704.534 280.191 705.608 279.728 706.458 278.8ZM732.02 277.32L734.261 278.185C733.772 279.659 732.991 280.792 731.917 281.583C730.843 282.374 729.505 282.77 727.903 282.77C725.794 282.77 724.07 282.086 722.732 280.719C721.404 279.352 720.74 277.535 720.74 275.27C720.74 273.912 721.019 272.682 721.575 271.578C722.142 270.465 722.942 269.586 723.978 268.941C725.022 268.287 726.204 267.96 727.522 267.96C729.427 267.96 730.955 268.507 732.107 269.601C733.27 270.675 733.851 272.145 733.851 274.01C733.851 274.635 733.792 275.216 733.675 275.753H723.377C723.387 277.247 723.816 278.414 724.666 279.254C725.516 280.084 726.595 280.499 727.903 280.499C730.052 280.499 731.424 279.439 732.02 277.32ZM723.377 273.893H731.272L731.302 273.482C731.302 272.486 730.94 271.695 730.218 271.109C729.505 270.523 728.597 270.23 727.493 270.23C726.39 270.23 725.457 270.562 724.695 271.227C723.943 271.881 723.504 272.77 723.377 273.893ZM737.278 282.477V261.471H739.856V282.477H737.278ZM743.87 268.253H746.448V282.477H743.87V268.253ZM743.724 265.616V262.584H746.609V265.616H743.724ZM751.971 278.243V270.45H749.144V268.253H751.971V263.844H754.578V268.253H759.676V270.45H754.578V278.36C754.578 279.015 754.759 279.537 755.12 279.928C755.491 280.309 755.96 280.499 756.526 280.499C757.132 280.499 757.605 280.323 757.947 279.972C758.299 279.61 758.533 279.044 758.65 278.272L761.053 278.814C760.857 280.084 760.374 281.061 759.603 281.744C758.831 282.428 757.835 282.77 756.614 282.77C755.12 282.77 753.973 282.374 753.172 281.583C752.371 280.792 751.971 279.679 751.971 278.243ZM763.88 279.327H767V282.477H763.88V279.327ZM781.385 263.39V282.477H778.631V261.471H783.362L794.29 280.558V261.471H797.044V282.477H792.269L781.385 263.39ZM811.077 268.253H813.685V282.477H811.077V280.074C810.579 280.924 809.93 281.588 809.129 282.066C808.338 282.535 807.435 282.77 806.419 282.77C804.837 282.77 803.592 282.306 802.684 281.378C801.775 280.44 801.321 279.107 801.321 277.379V268.253H803.899V276.778C803.899 278.009 804.173 278.937 804.72 279.562C805.267 280.187 806.062 280.499 807.107 280.499C808.26 280.499 809.207 280.069 809.949 279.21C810.701 278.351 811.077 277.218 811.077 275.812V268.253ZM820.247 282.477H817.669V268.253H820.247V270.567C820.745 269.737 821.399 269.098 822.21 268.648C823.03 268.189 823.938 267.96 824.935 267.96C826.468 267.96 827.684 268.429 828.582 269.366C829.49 270.294 829.944 271.583 829.944 273.233V282.477H827.337V274.01C827.337 272.779 827.054 271.842 826.487 271.197C825.921 270.553 825.12 270.23 824.085 270.23C822.981 270.23 822.063 270.641 821.331 271.461C820.608 272.271 820.247 273.346 820.247 274.684V282.477ZM840.506 280.499C841.834 280.499 842.874 280.138 843.626 279.415C844.388 278.683 844.915 277.623 845.208 276.236L847.522 277.101C847.122 278.897 846.312 280.294 845.091 281.29C843.87 282.276 842.361 282.77 840.564 282.77C838.328 282.77 836.521 282.081 835.145 280.704C833.777 279.327 833.094 277.516 833.094 275.27C833.094 274.225 833.284 273.248 833.665 272.34C834.046 271.422 834.559 270.646 835.203 270.011C835.848 269.376 836.604 268.878 837.474 268.517C838.353 268.146 839.271 267.96 840.228 267.96C841.956 267.96 843.401 268.414 844.563 269.322C845.735 270.221 846.492 271.476 846.834 273.087L844.461 273.805C844.236 272.672 843.758 271.793 843.025 271.168C842.293 270.543 841.351 270.23 840.198 270.23C839.642 270.23 839.095 270.343 838.558 270.567C838.021 270.792 837.527 271.109 837.078 271.52C836.639 271.93 836.282 272.462 836.009 273.116C835.745 273.771 835.613 274.488 835.613 275.27C835.613 276.803 836.097 278.058 837.063 279.034C838.04 280.011 839.188 280.499 840.506 280.499ZM66.5264 313.253L71.0674 324.957L75.5645 313.253H78.3184L72.6201 327.477H69.4707L63.8018 313.253H66.5264ZM90.6377 313.253H93.2451V327.477H90.6377V325.074C90.1396 325.924 89.4902 326.588 88.6895 327.066C87.8984 327.535 86.9951 327.77 85.9795 327.77C84.3975 327.77 83.1523 327.306 82.2441 326.378C81.3359 325.44 80.8818 324.107 80.8818 322.379V313.253H83.46V321.778C83.46 323.009 83.7334 323.937 84.2803 324.562C84.8271 325.187 85.623 325.499 86.668 325.499C87.8203 325.499 88.7676 325.069 89.5098 324.21C90.2617 323.351 90.6377 322.218 90.6377 320.812V313.253ZM97.2295 327.477V306.471H99.8076V327.477H97.2295ZM103.821 313.253H106.282V315.934C106.751 315.064 107.454 314.352 108.392 313.795C109.339 313.238 110.335 312.96 111.38 312.96C113.304 312.96 114.866 313.648 116.067 315.025C117.269 316.393 117.869 318.175 117.869 320.372C117.869 322.56 117.244 324.342 115.994 325.719C114.744 327.086 113.147 327.77 111.204 327.77C110.179 327.77 109.241 327.55 108.392 327.11C107.542 326.661 106.878 326.041 106.399 325.25V333.424H103.821V313.253ZM110.779 325.47C112.02 325.47 113.079 325.021 113.958 324.122C114.847 323.214 115.291 321.974 115.291 320.401C115.291 318.839 114.847 317.599 113.958 316.681C113.079 315.763 112.02 315.304 110.779 315.304C109.598 315.304 108.553 315.777 107.645 316.725C106.736 317.672 106.282 318.897 106.282 320.401C106.282 321.905 106.736 323.126 107.645 324.063C108.553 325.001 109.598 325.47 110.779 325.47ZM130.774 313.253H133.382V327.477H130.774V325.074C130.276 325.924 129.627 326.588 128.826 327.066C128.035 327.535 127.132 327.77 126.116 327.77C124.534 327.77 123.289 327.306 122.381 326.378C121.473 325.44 121.019 324.107 121.019 322.379V313.253H123.597V321.778C123.597 323.009 123.87 323.937 124.417 324.562C124.964 325.187 125.76 325.499 126.805 325.499C127.957 325.499 128.904 325.069 129.646 324.21C130.398 323.351 130.774 322.218 130.774 320.812V313.253ZM138.875 323.243V315.45H136.048V313.253H138.875V308.844H141.482V313.253H146.58V315.45H141.482V323.36C141.482 324.015 141.663 324.537 142.024 324.928C142.396 325.309 142.864 325.499 143.431 325.499C144.036 325.499 144.51 325.323 144.852 324.972C145.203 324.61 145.438 324.044 145.555 323.272L147.957 323.814C147.762 325.084 147.278 326.061 146.507 326.744C145.735 327.428 144.739 327.77 143.519 327.77C142.024 327.77 140.877 327.374 140.076 326.583C139.275 325.792 138.875 324.679 138.875 323.243ZM150.154 323.434C150.154 322.018 150.638 320.929 151.604 320.167C152.571 319.396 153.851 319.01 155.442 319.01C156.458 319.01 157.464 319.161 158.46 319.464L159.764 319.83V318.351C159.764 317.335 159.437 316.549 158.782 315.992C158.138 315.426 157.273 315.143 156.189 315.143C155.174 315.143 154.334 315.406 153.67 315.934C153.016 316.451 152.596 317.169 152.41 318.087L150.066 317.428C150.359 316.051 151.043 314.962 152.117 314.161C153.191 313.36 154.549 312.96 156.189 312.96C158.113 312.96 159.603 313.453 160.657 314.439C161.722 315.426 162.254 316.803 162.254 318.57V327.477H159.764V325.221C159.402 325.992 158.777 326.612 157.889 327.081C157.01 327.54 156.004 327.77 154.871 327.77C153.543 327.77 152.42 327.384 151.502 326.612C150.604 325.802 150.154 324.742 150.154 323.434ZM159.764 322.174V321.866L158.431 321.471C157.435 321.178 156.556 321.031 155.794 321.031C154.866 321.031 154.139 321.227 153.611 321.617C153.084 321.998 152.82 322.55 152.82 323.272C152.82 323.946 153.074 324.488 153.582 324.898C154.09 325.299 154.808 325.499 155.735 325.499C156.937 325.499 157.908 325.201 158.65 324.605C159.393 324 159.764 323.189 159.764 322.174ZM167 323.243V315.45H164.173V313.253H167V308.844H169.607V313.253H174.705V315.45H169.607V323.36C169.607 324.015 169.788 324.537 170.149 324.928C170.521 325.309 170.989 325.499 171.556 325.499C172.161 325.499 172.635 325.323 172.977 324.972C173.328 324.61 173.562 324.044 173.68 323.272L176.082 323.814C175.887 325.084 175.403 326.061 174.632 326.744C173.86 327.428 172.864 327.77 171.644 327.77C170.149 327.77 169.002 327.374 168.201 326.583C167.4 325.792 167 324.679 167 323.243ZM188.709 322.32L190.95 323.185C190.462 324.659 189.681 325.792 188.606 326.583C187.532 327.374 186.194 327.77 184.593 327.77C182.483 327.77 180.76 327.086 179.422 325.719C178.094 324.352 177.43 322.535 177.43 320.27C177.43 318.912 177.708 317.682 178.265 316.578C178.831 315.465 179.632 314.586 180.667 313.941C181.712 313.287 182.894 312.96 184.212 312.96C186.116 312.96 187.645 313.507 188.797 314.601C189.959 315.675 190.54 317.145 190.54 319.01C190.54 319.635 190.481 320.216 190.364 320.753H180.066C180.076 322.247 180.506 323.414 181.355 324.254C182.205 325.084 183.284 325.499 184.593 325.499C186.741 325.499 188.113 324.439 188.709 322.32ZM180.066 318.893H187.962L187.991 318.482C187.991 317.486 187.63 316.695 186.907 316.109C186.194 315.523 185.286 315.23 184.183 315.23C183.079 315.23 182.146 315.562 181.385 316.227C180.633 316.881 180.193 317.77 180.066 318.893ZM201.321 327.477V306.471H203.899V327.477H201.321ZM207.913 313.253H210.491V327.477H207.913V313.253ZM207.767 310.616V307.584H210.652V310.616H207.767ZM214.505 306.471H217.083V315.934C217.571 315.035 218.27 314.317 219.178 313.78C220.086 313.233 221.067 312.96 222.122 312.96C224.017 312.96 225.56 313.658 226.751 315.055C227.952 316.451 228.553 318.253 228.553 320.46C228.553 322.647 227.928 324.415 226.678 325.763C225.428 327.101 223.812 327.77 221.829 327.77C220.804 327.77 219.861 327.54 219.002 327.081C218.143 326.612 217.464 325.963 216.966 325.133V327.477H214.505V306.471ZM221.463 325.47C222.732 325.47 223.802 325.021 224.671 324.122C225.54 323.214 225.975 321.983 225.975 320.431C225.975 318.888 225.535 317.647 224.656 316.71C223.787 315.772 222.723 315.304 221.463 315.304C220.262 315.304 219.212 315.782 218.313 316.739C217.415 317.687 216.966 318.917 216.966 320.431C216.966 321.944 217.41 323.165 218.299 324.093C219.188 325.011 220.242 325.47 221.463 325.47ZM242.117 322.32L244.358 323.185C243.87 324.659 243.089 325.792 242.015 326.583C240.94 327.374 239.603 327.77 238.001 327.77C235.892 327.77 234.168 327.086 232.83 325.719C231.502 324.352 230.838 322.535 230.838 320.27C230.838 318.912 231.116 317.682 231.673 316.578C232.239 315.465 233.04 314.586 234.075 313.941C235.12 313.287 236.302 312.96 237.62 312.96C239.524 312.96 241.053 313.507 242.205 314.601C243.367 315.675 243.948 317.145 243.948 319.01C243.948 319.635 243.89 320.216 243.772 320.753H233.475C233.484 322.247 233.914 323.414 234.764 324.254C235.613 325.084 236.692 325.499 238.001 325.499C240.149 325.499 241.521 324.439 242.117 322.32ZM233.475 318.893H241.37L241.399 318.482C241.399 317.486 241.038 316.695 240.315 316.109C239.603 315.523 238.694 315.23 237.591 315.23C236.487 315.23 235.555 315.562 234.793 316.227C234.041 316.881 233.602 317.77 233.475 318.893ZM247.376 313.253H249.954V315.333C250.267 314.571 250.735 313.985 251.36 313.575C251.985 313.165 252.728 312.96 253.587 312.96C254.729 312.96 255.662 313.331 256.385 314.073C257.117 314.815 257.483 315.733 257.483 316.827C257.483 317.403 257.425 317.936 257.308 318.424H254.788C254.847 317.994 254.876 317.643 254.876 317.369C254.876 316.705 254.671 316.183 254.261 315.802C253.86 315.421 253.309 315.23 252.605 315.23C251.805 315.23 251.16 315.523 250.672 316.109C250.193 316.695 249.954 317.467 249.954 318.424V327.477H247.376V313.253ZM261.468 325.675C260.13 324.269 259.461 322.501 259.461 320.372C259.461 318.243 260.13 316.476 261.468 315.069C262.806 313.663 264.534 312.96 266.653 312.96C268.069 312.96 269.329 313.287 270.433 313.941C271.536 314.586 272.386 315.47 272.981 316.593C273.587 317.716 273.89 318.976 273.89 320.372C273.89 322.491 273.211 324.254 271.854 325.66C270.496 327.066 268.763 327.77 266.653 327.77C264.534 327.77 262.806 327.071 261.468 325.675ZM271.224 320.372C271.224 318.868 270.794 317.657 269.935 316.739C269.104 315.782 268.011 315.304 266.653 315.304C265.335 315.304 264.246 315.777 263.387 316.725C262.527 317.672 262.098 318.888 262.098 320.372C262.098 321.856 262.527 323.072 263.387 324.02C264.246 324.967 265.335 325.44 266.653 325.44C267.991 325.44 269.085 324.972 269.935 324.034C270.794 323.087 271.224 321.866 271.224 320.372ZM294.764 322.32L297.005 323.185C296.517 324.659 295.735 325.792 294.661 326.583C293.587 327.374 292.249 327.77 290.647 327.77C288.538 327.77 286.814 327.086 285.477 325.719C284.148 324.352 283.484 322.535 283.484 320.27C283.484 318.912 283.763 317.682 284.319 316.578C284.886 315.465 285.687 314.586 286.722 313.941C287.767 313.287 288.948 312.96 290.267 312.96C292.171 312.96 293.699 313.507 294.852 314.601C296.014 315.675 296.595 317.145 296.595 319.01C296.595 319.635 296.536 320.216 296.419 320.753H286.121C286.131 322.247 286.561 323.414 287.41 324.254C288.26 325.084 289.339 325.499 290.647 325.499C292.796 325.499 294.168 324.439 294.764 322.32ZM286.121 318.893H294.017L294.046 318.482C294.046 317.486 293.685 316.695 292.962 316.109C292.249 315.523 291.341 315.23 290.237 315.23C289.134 315.23 288.201 315.562 287.439 316.227C286.688 316.881 286.248 317.77 286.121 318.893ZM301.473 323.243V315.45H298.646V313.253H301.473V308.844H304.08V313.253H309.178V315.45H304.08V323.36C304.08 324.015 304.261 324.537 304.622 324.928C304.993 325.309 305.462 325.499 306.028 325.499C306.634 325.499 307.107 325.323 307.449 324.972C307.801 324.61 308.035 324.044 308.152 323.272L310.555 323.814C310.359 325.084 309.876 326.061 309.104 326.744C308.333 327.428 307.337 327.77 306.116 327.77C304.622 327.77 303.475 327.374 302.674 326.583C301.873 325.792 301.473 324.679 301.473 323.243ZM322.054 313.253L326.595 324.957L331.092 313.253H333.846L328.147 327.477H324.998L319.329 313.253H322.054ZM346.385 322.32L348.626 323.185C348.138 324.659 347.356 325.792 346.282 326.583C345.208 327.374 343.87 327.77 342.269 327.77C340.159 327.77 338.436 327.086 337.098 325.719C335.77 324.352 335.105 322.535 335.105 320.27C335.105 318.912 335.384 317.682 335.94 316.578C336.507 315.465 337.308 314.586 338.343 313.941C339.388 313.287 340.569 312.96 341.888 312.96C343.792 312.96 345.32 313.507 346.473 314.601C347.635 315.675 348.216 317.145 348.216 319.01C348.216 319.635 348.157 320.216 348.04 320.753H337.742C337.752 322.247 338.182 323.414 339.031 324.254C339.881 325.084 340.96 325.499 342.269 325.499C344.417 325.499 345.789 324.439 346.385 322.32ZM337.742 318.893H345.638L345.667 318.482C345.667 317.486 345.306 316.695 344.583 316.109C343.87 315.523 342.962 315.23 341.858 315.23C340.755 315.23 339.822 315.562 339.061 316.227C338.309 316.881 337.869 317.77 337.742 318.893ZM351.644 327.477V306.471H354.222V327.477H351.644ZM358.235 313.253H360.813V327.477H358.235V313.253ZM358.089 310.616V307.584H360.975V310.616H358.089ZM366.336 323.243V315.45H363.509V313.253H366.336V308.844H368.943V313.253H374.041V315.45H368.943V323.36C368.943 324.015 369.124 324.537 369.485 324.928C369.856 325.309 370.325 325.499 370.892 325.499C371.497 325.499 371.971 325.323 372.312 324.972C372.664 324.61 372.898 324.044 373.016 323.272L375.418 323.814C375.223 325.084 374.739 326.061 373.968 326.744C373.196 327.428 372.2 327.77 370.979 327.77C369.485 327.77 368.338 327.374 367.537 326.583C366.736 325.792 366.336 324.679 366.336 323.243ZM385.628 313.253H388.206V327.477H385.628V313.253ZM385.481 310.616V307.584H388.367V310.616H385.481ZM394.798 327.477H392.22V313.253H394.798V315.567C395.296 314.737 395.95 314.098 396.761 313.648C397.581 313.189 398.489 312.96 399.485 312.96C401.019 312.96 402.234 313.429 403.133 314.366C404.041 315.294 404.495 316.583 404.495 318.233V327.477H401.888V319.01C401.888 317.779 401.604 316.842 401.038 316.197C400.472 315.553 399.671 315.23 398.636 315.23C397.532 315.23 396.614 315.641 395.882 316.461C395.159 317.271 394.798 318.346 394.798 319.684V327.477ZM409.607 323.243V315.45H406.78V313.253H409.607V308.844H412.215V313.253H417.312V315.45H412.215V323.36C412.215 324.015 412.396 324.537 412.757 324.928C413.128 325.309 413.597 325.499 414.163 325.499C414.769 325.499 415.242 325.323 415.584 324.972C415.936 324.61 416.17 324.044 416.287 323.272L418.689 323.814C418.494 325.084 418.011 326.061 417.239 326.744C416.468 327.428 415.472 327.77 414.251 327.77C412.757 327.77 411.609 327.374 410.809 326.583C410.008 325.792 409.607 324.679 409.607 323.243ZM431.316 322.32L433.558 323.185C433.069 324.659 432.288 325.792 431.214 326.583C430.14 327.374 428.802 327.77 427.2 327.77C425.091 327.77 423.367 327.086 422.029 325.719C420.701 324.352 420.037 322.535 420.037 320.27C420.037 318.912 420.315 317.682 420.872 316.578C421.438 315.465 422.239 314.586 423.274 313.941C424.319 313.287 425.501 312.96 426.819 312.96C428.724 312.96 430.252 313.507 431.404 314.601C432.566 315.675 433.147 317.145 433.147 319.01C433.147 319.635 433.089 320.216 432.972 320.753H422.674C422.684 322.247 423.113 323.414 423.963 324.254C424.812 325.084 425.892 325.499 427.2 325.499C429.349 325.499 430.721 324.439 431.316 322.32ZM422.674 318.893H430.569L430.599 318.482C430.599 317.486 430.237 316.695 429.515 316.109C428.802 315.523 427.894 315.23 426.79 315.23C425.687 315.23 424.754 315.562 423.992 316.227C423.24 316.881 422.801 317.77 422.674 318.893ZM436.575 313.253H439.153V315.333C439.466 314.571 439.935 313.985 440.56 313.575C441.185 313.165 441.927 312.96 442.786 312.96C443.929 312.96 444.861 313.331 445.584 314.073C446.316 314.815 446.683 315.733 446.683 316.827C446.683 317.403 446.624 317.936 446.507 318.424H443.987C444.046 317.994 444.075 317.643 444.075 317.369C444.075 316.705 443.87 316.183 443.46 315.802C443.06 315.421 442.508 315.23 441.805 315.23C441.004 315.23 440.359 315.523 439.871 316.109C439.393 316.695 439.153 317.467 439.153 318.424V327.477H436.575V313.253ZM448.66 320.46C448.66 318.253 449.275 316.451 450.506 315.055C451.736 313.658 453.318 312.96 455.252 312.96C456.336 312.96 457.298 313.214 458.138 313.722C458.987 314.229 459.646 314.933 460.115 315.831V306.471H462.723V327.477H460.232V324.928C459.744 325.797 459.065 326.49 458.196 327.008C457.327 327.516 456.365 327.77 455.311 327.77C453.348 327.77 451.746 327.096 450.506 325.748C449.275 324.391 448.66 322.628 448.66 320.46ZM460.232 320.431C460.232 318.927 459.778 317.696 458.87 316.739C457.962 315.782 456.917 315.304 455.735 315.304C454.524 315.304 453.47 315.777 452.571 316.725C451.683 317.662 451.238 318.897 451.238 320.431C451.238 321.974 451.678 323.199 452.557 324.107C453.445 325.016 454.505 325.47 455.735 325.47C456.302 325.47 456.849 325.357 457.376 325.133C457.913 324.898 458.392 324.571 458.812 324.151C459.241 323.731 459.583 323.199 459.837 322.555C460.101 321.91 460.232 321.202 460.232 320.431ZM476.478 313.253H479.085V327.477H476.478V325.074C475.979 325.924 475.33 326.588 474.529 327.066C473.738 327.535 472.835 327.77 471.819 327.77C470.237 327.77 468.992 327.306 468.084 326.378C467.176 325.44 466.722 324.107 466.722 322.379V313.253H469.3V321.778C469.3 323.009 469.573 323.937 470.12 324.562C470.667 325.187 471.463 325.499 472.508 325.499C473.66 325.499 474.607 325.069 475.35 324.21C476.102 323.351 476.478 322.218 476.478 320.812V313.253ZM483.069 313.253H485.647V315.26C486.399 313.727 487.679 312.96 489.485 312.96C490.364 312.96 491.131 313.204 491.785 313.692C492.439 314.181 492.884 314.874 493.118 315.772C493.489 314.884 494.046 314.195 494.788 313.707C495.54 313.209 496.375 312.96 497.293 312.96C498.631 312.96 499.686 313.365 500.457 314.176C501.229 314.977 501.614 316.119 501.614 317.604V327.477H499.036V318.146C499.036 317.276 498.792 316.588 498.304 316.08C497.825 315.562 497.2 315.304 496.429 315.304C495.618 315.304 494.949 315.597 494.422 316.183C493.895 316.759 493.631 317.574 493.631 318.629V327.477H491.023V318.263C491.023 317.315 490.789 316.588 490.32 316.08C489.852 315.562 489.217 315.304 488.416 315.304C487.605 315.304 486.941 315.606 486.424 316.212C485.906 316.808 485.647 317.662 485.647 318.775V327.477H483.069V313.253ZM504.617 330.567L504.881 329.132C505.252 329.308 505.643 329.396 506.053 329.396C506.834 329.396 507.225 329.063 507.225 328.399C507.225 327.784 506.863 327.477 506.141 327.477H505.599V324.327H508.719V328.253C508.719 329.972 507.84 330.831 506.082 330.831C505.555 330.831 505.066 330.743 504.617 330.567ZM519.412 323.434C519.412 322.018 519.896 320.929 520.862 320.167C521.829 319.396 523.108 319.01 524.7 319.01C525.716 319.01 526.722 319.161 527.718 319.464L529.021 319.83V318.351C529.021 317.335 528.694 316.549 528.04 315.992C527.396 315.426 526.531 315.143 525.447 315.143C524.432 315.143 523.592 315.406 522.928 315.934C522.273 316.451 521.854 317.169 521.668 318.087L519.324 317.428C519.617 316.051 520.301 314.962 521.375 314.161C522.449 313.36 523.807 312.96 525.447 312.96C527.371 312.96 528.86 313.453 529.915 314.439C530.979 315.426 531.512 316.803 531.512 318.57V327.477H529.021V325.221C528.66 325.992 528.035 326.612 527.146 327.081C526.268 327.54 525.262 327.77 524.129 327.77C522.801 327.77 521.678 327.384 520.76 326.612C519.861 325.802 519.412 324.742 519.412 323.434ZM529.021 322.174V321.866L527.688 321.471C526.692 321.178 525.813 321.031 525.052 321.031C524.124 321.031 523.396 321.227 522.869 321.617C522.342 321.998 522.078 322.55 522.078 323.272C522.078 323.946 522.332 324.488 522.84 324.898C523.348 325.299 524.065 325.499 524.993 325.499C526.194 325.499 527.166 325.201 527.908 324.605C528.65 324 529.021 323.189 529.021 322.174ZM542.059 325.499C543.387 325.499 544.427 325.138 545.179 324.415C545.94 323.683 546.468 322.623 546.761 321.236L549.075 322.101C548.675 323.897 547.864 325.294 546.644 326.29C545.423 327.276 543.914 327.77 542.117 327.77C539.881 327.77 538.074 327.081 536.697 325.704C535.33 324.327 534.646 322.516 534.646 320.27C534.646 319.225 534.837 318.248 535.218 317.34C535.599 316.422 536.111 315.646 536.756 315.011C537.4 314.376 538.157 313.878 539.026 313.517C539.905 313.146 540.823 312.96 541.78 312.96C543.509 312.96 544.954 313.414 546.116 314.322C547.288 315.221 548.045 316.476 548.387 318.087L546.014 318.805C545.789 317.672 545.311 316.793 544.578 316.168C543.846 315.543 542.903 315.23 541.751 315.23C541.194 315.23 540.647 315.343 540.11 315.567C539.573 315.792 539.08 316.109 538.631 316.52C538.191 316.93 537.835 317.462 537.562 318.116C537.298 318.771 537.166 319.488 537.166 320.27C537.166 321.803 537.649 323.058 538.616 324.034C539.593 325.011 540.74 325.499 542.059 325.499ZM558.699 323.434C558.699 322.018 559.183 320.929 560.149 320.167C561.116 319.396 562.396 319.01 563.987 319.01C565.003 319.01 566.009 319.161 567.005 319.464L568.309 319.83V318.351C568.309 317.335 567.981 316.549 567.327 315.992C566.683 315.426 565.818 315.143 564.734 315.143C563.719 315.143 562.879 315.406 562.215 315.934C561.561 316.451 561.141 317.169 560.955 318.087L558.611 317.428C558.904 316.051 559.588 314.962 560.662 314.161C561.736 313.36 563.094 312.96 564.734 312.96C566.658 312.96 568.147 313.453 569.202 314.439C570.267 315.426 570.799 316.803 570.799 318.57V327.477H568.309V325.221C567.947 325.992 567.322 326.612 566.434 327.081C565.555 327.54 564.549 327.77 563.416 327.77C562.088 327.77 560.965 327.384 560.047 326.612C559.148 325.802 558.699 324.742 558.699 323.434ZM568.309 322.174V321.866L566.976 321.471C565.979 321.178 565.101 321.031 564.339 321.031C563.411 321.031 562.684 321.227 562.156 321.617C561.629 321.998 561.365 322.55 561.365 323.272C561.365 323.946 561.619 324.488 562.127 324.898C562.635 325.299 563.353 325.499 564.28 325.499C565.481 325.499 566.453 325.201 567.195 324.605C567.938 324 568.309 323.189 568.309 322.174ZM574.798 327.477V306.471H577.376V327.477H574.798ZM581.39 313.253H583.968V327.477H581.39V313.253ZM581.243 310.616V307.584H584.129V310.616H581.243ZM598.572 333.424V324.928C597.488 326.822 595.848 327.77 593.65 327.77C591.736 327.77 590.169 327.081 588.948 325.704C587.728 324.317 587.117 322.54 587.117 320.372C587.117 318.175 587.742 316.393 588.992 315.025C590.242 313.648 591.849 312.96 593.812 312.96C594.935 312.96 595.926 313.224 596.785 313.751C597.645 314.278 598.279 314.991 598.689 315.89V313.253H601.18V333.424H598.572ZM598.689 320.401C598.689 318.858 598.245 317.623 597.356 316.695C596.478 315.768 595.423 315.304 594.192 315.304C592.952 315.304 591.893 315.763 591.014 316.681C590.135 317.599 589.695 318.839 589.695 320.401C589.695 321.983 590.13 323.224 590.999 324.122C591.878 325.021 592.942 325.47 594.192 325.47C595.384 325.47 596.429 325.011 597.327 324.093C598.235 323.165 598.689 321.935 598.689 320.401ZM614.935 313.253H617.542V327.477H614.935V325.074C614.437 325.924 613.787 326.588 612.986 327.066C612.195 327.535 611.292 327.77 610.276 327.77C608.694 327.77 607.449 327.306 606.541 326.378C605.633 325.44 605.179 324.107 605.179 322.379V313.253H607.757V321.778C607.757 323.009 608.03 323.937 608.577 324.562C609.124 325.187 609.92 325.499 610.965 325.499C612.117 325.499 613.064 325.069 613.807 324.21C614.559 323.351 614.935 322.218 614.935 320.812V313.253ZM631.941 322.32L634.183 323.185C633.694 324.659 632.913 325.792 631.839 326.583C630.765 327.374 629.427 327.77 627.825 327.77C625.716 327.77 623.992 327.086 622.654 325.719C621.326 324.352 620.662 322.535 620.662 320.27C620.662 318.912 620.94 317.682 621.497 316.578C622.063 315.465 622.864 314.586 623.899 313.941C624.944 313.287 626.126 312.96 627.444 312.96C629.349 312.96 630.877 313.507 632.029 314.601C633.191 315.675 633.772 317.145 633.772 319.01C633.772 319.635 633.714 320.216 633.597 320.753H623.299C623.309 322.247 623.738 323.414 624.588 324.254C625.438 325.084 626.517 325.499 627.825 325.499C629.974 325.499 631.346 324.439 631.941 322.32ZM623.299 318.893H631.194L631.224 318.482C631.224 317.486 630.862 316.695 630.14 316.109C629.427 315.523 628.519 315.23 627.415 315.23C626.312 315.23 625.379 315.562 624.617 316.227C623.865 316.881 623.426 317.77 623.299 318.893ZM638.65 323.243V315.45H635.823V313.253H638.65V308.844H641.258V313.253H646.355V315.45H641.258V323.36C641.258 324.015 641.438 324.537 641.8 324.928C642.171 325.309 642.64 325.499 643.206 325.499C643.812 325.499 644.285 325.323 644.627 324.972C644.979 324.61 645.213 324.044 645.33 323.272L647.732 323.814C647.537 325.084 647.054 326.061 646.282 326.744C645.511 327.428 644.515 327.77 643.294 327.77C641.8 327.77 640.652 327.374 639.852 326.583C639.051 325.792 638.65 324.679 638.65 323.243ZM659.085 325.675C657.747 324.269 657.078 322.501 657.078 320.372C657.078 318.243 657.747 316.476 659.085 315.069C660.423 313.663 662.151 312.96 664.271 312.96C665.687 312.96 666.946 313.287 668.05 313.941C669.153 314.586 670.003 315.47 670.599 316.593C671.204 317.716 671.507 318.976 671.507 320.372C671.507 322.491 670.828 324.254 669.471 325.66C668.113 327.066 666.38 327.77 664.271 327.77C662.151 327.77 660.423 327.071 659.085 325.675ZM668.841 320.372C668.841 318.868 668.411 317.657 667.552 316.739C666.722 315.782 665.628 315.304 664.271 315.304C662.952 315.304 661.863 315.777 661.004 316.725C660.145 317.672 659.715 318.888 659.715 320.372C659.715 321.856 660.145 323.072 661.004 324.02C661.863 324.967 662.952 325.44 664.271 325.44C665.608 325.44 666.702 324.972 667.552 324.034C668.411 323.087 668.841 321.866 668.841 320.372ZM673.748 320.46C673.748 318.253 674.363 316.451 675.594 315.055C676.824 313.658 678.406 312.96 680.34 312.96C681.424 312.96 682.386 313.214 683.226 313.722C684.075 314.229 684.734 314.933 685.203 315.831V306.471H687.811V327.477H685.32V324.928C684.832 325.797 684.153 326.49 683.284 327.008C682.415 327.516 681.453 327.77 680.398 327.77C678.436 327.77 676.834 327.096 675.594 325.748C674.363 324.391 673.748 322.628 673.748 320.46ZM685.32 320.431C685.32 318.927 684.866 317.696 683.958 316.739C683.05 315.782 682.005 315.304 680.823 315.304C679.612 315.304 678.558 315.777 677.659 316.725C676.771 317.662 676.326 318.897 676.326 320.431C676.326 321.974 676.766 323.199 677.645 324.107C678.533 325.016 679.593 325.47 680.823 325.47C681.39 325.47 681.937 325.357 682.464 325.133C683.001 324.898 683.479 324.571 683.899 324.151C684.329 323.731 684.671 323.199 684.925 322.555C685.188 321.91 685.32 321.202 685.32 320.431ZM691.81 313.253H694.388V327.477H691.81V313.253ZM691.663 310.616V307.584H694.549V310.616H691.663ZM699.544 325.675C698.206 324.269 697.537 322.501 697.537 320.372C697.537 318.243 698.206 316.476 699.544 315.069C700.882 313.663 702.61 312.96 704.729 312.96C706.146 312.96 707.405 313.287 708.509 313.941C709.612 314.586 710.462 315.47 711.058 316.593C711.663 317.716 711.966 318.976 711.966 320.372C711.966 322.491 711.287 324.254 709.93 325.66C708.572 327.066 706.839 327.77 704.729 327.77C702.61 327.77 700.882 327.071 699.544 325.675ZM709.3 320.372C709.3 318.868 708.87 317.657 708.011 316.739C707.181 315.782 706.087 315.304 704.729 315.304C703.411 315.304 702.322 315.777 701.463 316.725C700.604 317.672 700.174 318.888 700.174 320.372C700.174 321.856 700.604 323.072 701.463 324.02C702.322 324.967 703.411 325.44 704.729 325.44C706.067 325.44 707.161 324.972 708.011 324.034C708.87 323.087 709.3 321.866 709.3 320.372ZM722.425 313.253H725.003V315.26C725.755 313.727 727.034 312.96 728.841 312.96C729.72 312.96 730.486 313.204 731.141 313.692C731.795 314.181 732.239 314.874 732.474 315.772C732.845 314.884 733.401 314.195 734.144 313.707C734.896 313.209 735.73 312.96 736.648 312.96C737.986 312.96 739.041 313.365 739.812 314.176C740.584 314.977 740.97 316.119 740.97 317.604V327.477H738.392V318.146C738.392 317.276 738.147 316.588 737.659 316.08C737.181 315.562 736.556 315.304 735.784 315.304C734.974 315.304 734.305 315.597 733.777 316.183C733.25 316.759 732.986 317.574 732.986 318.629V327.477H730.379V318.263C730.379 317.315 730.145 316.588 729.676 316.08C729.207 315.562 728.572 315.304 727.771 315.304C726.961 315.304 726.297 315.606 725.779 316.212C725.262 316.808 725.003 317.662 725.003 318.775V327.477H722.425V313.253ZM744.266 323.434C744.266 322.018 744.749 320.929 745.716 320.167C746.683 319.396 747.962 319.01 749.554 319.01C750.569 319.01 751.575 319.161 752.571 319.464L753.875 319.83V318.351C753.875 317.335 753.548 316.549 752.894 315.992C752.249 315.426 751.385 315.143 750.301 315.143C749.285 315.143 748.445 315.406 747.781 315.934C747.127 316.451 746.707 317.169 746.521 318.087L744.178 317.428C744.471 316.051 745.154 314.962 746.229 314.161C747.303 313.36 748.66 312.96 750.301 312.96C752.225 312.96 753.714 313.453 754.769 314.439C755.833 315.426 756.365 316.803 756.365 318.57V327.477H753.875V325.221C753.514 325.992 752.889 326.612 752 327.081C751.121 327.54 750.115 327.77 748.982 327.77C747.654 327.77 746.531 327.384 745.613 326.612C744.715 325.802 744.266 324.742 744.266 323.434ZM753.875 322.174V321.866L752.542 321.471C751.546 321.178 750.667 321.031 749.905 321.031C748.978 321.031 748.25 321.227 747.723 321.617C747.195 321.998 746.932 322.55 746.932 323.272C746.932 323.946 747.186 324.488 747.693 324.898C748.201 325.299 748.919 325.499 749.847 325.499C751.048 325.499 752.02 325.201 752.762 324.605C753.504 324 753.875 323.189 753.875 322.174ZM761.111 323.243V315.45H758.284V313.253H761.111V308.844H763.719V313.253H768.816V315.45H763.719V323.36C763.719 324.015 763.899 324.537 764.261 324.928C764.632 325.309 765.101 325.499 765.667 325.499C766.272 325.499 766.746 325.323 767.088 324.972C767.439 324.61 767.674 324.044 767.791 323.272L770.193 323.814C769.998 325.084 769.515 326.061 768.743 326.744C767.972 327.428 766.976 327.77 765.755 327.77C764.261 327.77 763.113 327.374 762.312 326.583C761.512 325.792 761.111 324.679 761.111 323.243ZM773.387 323.243V315.45H770.56V313.253H773.387V308.844H775.994V313.253H781.092V315.45H775.994V323.36C775.994 324.015 776.175 324.537 776.536 324.928C776.907 325.309 777.376 325.499 777.942 325.499C778.548 325.499 779.021 325.323 779.363 324.972C779.715 324.61 779.949 324.044 780.066 323.272L782.469 323.814C782.273 325.084 781.79 326.061 781.019 326.744C780.247 327.428 779.251 327.77 778.03 327.77C776.536 327.77 775.389 327.374 774.588 326.583C773.787 325.792 773.387 324.679 773.387 323.243ZM785.325 313.253H787.903V327.477H785.325V313.253ZM785.179 310.616V307.584H788.064V310.616H785.179ZM790.906 323.756L793.03 322.643C793.431 323.648 793.968 324.376 794.642 324.825C795.315 325.274 796.189 325.499 797.264 325.499C798.201 325.499 798.943 325.313 799.49 324.942C800.047 324.562 800.325 324.059 800.325 323.434C800.325 322.74 800.047 322.203 799.49 321.822C798.943 321.432 797.972 321.139 796.575 320.943C793.313 320.465 791.683 319.103 791.683 316.856C791.683 315.714 792.161 314.786 793.118 314.073C794.104 313.331 795.335 312.96 796.81 312.96C799.319 312.96 801.028 314.01 801.937 316.109L799.93 317.223C799.441 315.777 798.401 315.055 796.81 315.055C796.019 315.055 795.359 315.226 794.832 315.567C794.314 315.899 794.056 316.339 794.056 316.886C794.056 317.491 794.339 317.955 794.905 318.277C795.472 318.6 796.458 318.858 797.864 319.054C801.185 319.503 802.845 320.909 802.845 323.272C802.845 324.581 802.298 325.66 801.204 326.51C800.12 327.35 798.768 327.77 797.146 327.77C795.574 327.77 794.246 327.413 793.162 326.7C792.088 325.978 791.336 324.996 790.906 323.756ZM805.657 324.327H808.777V327.477H805.657V324.327Z" fill="#252525"/>
</g>
<defs>
<clipPath id="clip0_1664_117647">
<rect width="873" height="340.953" fill="white" transform="translate(0.5 0.523438)"/>
</clipPath>
</defs>
</svg>
