<svg width="70" height="35" viewBox="0 0 70 35" fill="none" xmlns="http://www.w3.org/2000/svg">
<g clip-path="url(#clip0_2502_135203)">
<path d="M13.8957 16.1133V20.1014C13.8957 21.1077 14.1816 21.8998 14.7533 22.4775C15.331 23.0552 16.1521 23.3441 17.2163 23.3441C18.1468 23.3441 18.901 23.0832 19.4787 22.5614C20.0565 22.0396 20.4062 21.3034 20.5278 20.353L18.3202 19.9337C18.2472 20.7723 17.8975 21.1916 17.2711 21.1916C16.967 21.1916 16.7237 21.0953 16.5413 20.9028C16.3588 20.7102 16.2676 20.4431 16.2676 20.1014V16.1133H19.5882V14.1099H16.2676V11.1375H13.8957V14.1099H12.0621V16.1133H13.8957Z" fill="black"/>
<path d="M22.0418 23.1577H30.0332V20.9587H25.034L29.9054 16.1133V14.1099H22.1878V16.2158H26.895L22.0418 21.0612V23.1577Z" fill="black"/>
<path d="M40.7427 14.1099H38.3617V18.7689C38.3617 19.5392 38.1823 20.1449 37.8234 20.5859C37.4707 21.027 36.9781 21.2475 36.3456 21.2475C35.8226 21.2475 35.4212 21.0767 35.1414 20.735C34.8617 20.3872 34.7218 19.8902 34.7218 19.2441V14.1099H32.3317V19.8591C32.3317 20.9835 32.6297 21.847 33.2257 22.4495C33.8278 23.0459 34.6458 23.3441 35.6796 23.3441C36.2939 23.3441 36.8352 23.2105 37.3035 22.9434C37.7718 22.6701 38.1245 22.2973 38.3617 21.8252V23.1577H40.7427V14.1099Z" fill="black"/>
<path d="M52.0086 14.1099H49.582L47.1554 19.2628L44.8748 14.1099H42.3661L45.9148 21.8811L43.5429 26.9408H45.9786L52.0086 14.1099Z" fill="black"/>
<path d="M56.1225 14.1099H53.7324V23.1577H56.1225V14.1099Z" fill="black"/>
<path d="M53.6595 10.1777V12.7588H56.2138V10.1777H53.6595Z" fill="black"/>
<path fill-rule="evenodd" clip-rule="evenodd" d="M0 10.4C0 4.65624 4.55856 0 10.1818 0H59.8182C65.4414 0 70 4.65624 70 10.4V24.6C70 30.3438 65.4414 35 59.8182 35H10.1818C4.55856 35 0 30.3438 0 24.6V10.4ZM10.1818 2.6H59.8182C64.0356 2.6 67.4545 6.09218 67.4545 10.4V24.6C67.4545 28.9078 64.0356 32.4 59.8182 32.4H10.1818C5.96437 32.4 2.54545 28.9078 2.54545 24.6V10.4C2.54545 6.09218 5.96437 2.6 10.1818 2.6Z" fill="black"/>
</g>
<defs>
<clipPath id="clip0_2502_135203">
<rect width="70" height="35" fill="white"/>
</clipPath>
</defs>
</svg>
