<svg width="70" height="36" viewBox="0 0 70 36" fill="none" xmlns="http://www.w3.org/2000/svg">
<g clip-path="url(#clip0_2502_135209)">
<path d="M13.8957 16.6563V20.6444C13.8957 21.6507 14.1816 22.4427 14.7533 23.0205C15.331 23.5982 16.1521 23.887 17.2163 23.887C18.1468 23.887 18.901 23.6261 19.4787 23.1043C20.0565 22.5825 20.4062 21.8464 20.5278 20.896L18.3202 20.4766C18.2472 21.3153 17.8975 21.7346 17.2711 21.7346C16.967 21.7346 16.7237 21.6383 16.5413 21.4457C16.3588 21.2531 16.2676 20.986 16.2676 20.6444V16.6563H19.5882V14.6529H16.2676V11.6804H13.8957V14.6529H12.0621V16.6563H13.8957Z" fill="white"/>
<path d="M22.0418 23.7007H30.0332V21.5016H25.034L29.9054 16.6563V14.6529H22.1878V16.7588H26.895L22.0418 21.6041V23.7007Z" fill="white"/>
<path d="M40.7427 14.6529H38.3617V19.3119C38.3617 20.0822 38.1823 20.6879 37.8234 21.1289C37.4707 21.57 36.9781 21.7905 36.3456 21.7905C35.8226 21.7905 35.4212 21.6197 35.1414 21.278C34.8617 20.9301 34.7218 20.4332 34.7218 19.7871V14.6529H32.3317V20.4021C32.3317 21.5265 32.6297 22.3899 33.2257 22.9925C33.8278 23.5889 34.6458 23.887 35.6796 23.887C36.2939 23.887 36.8352 23.7535 37.3035 23.4864C37.7718 23.213 38.1245 22.8403 38.3617 22.3682V23.7007H40.7427V14.6529Z" fill="white"/>
<path d="M52.0086 14.6529H49.582L47.1554 19.8057L44.8748 14.6529H42.3661L45.9148 22.4241L43.5429 27.4838H45.9786L52.0086 14.6529Z" fill="white"/>
<path d="M56.1225 14.6529H53.7324V23.7007H56.1225V14.6529Z" fill="white"/>
<path d="M53.6595 10.7207V13.3018H56.2138V10.7207H53.6595Z" fill="white"/>
<path fill-rule="evenodd" clip-rule="evenodd" d="M0 10.943C0 5.19921 4.55856 0.542969 10.1818 0.542969H59.8182C65.4414 0.542969 70 5.19921 70 10.943V25.143C70 30.8867 65.4414 35.543 59.8182 35.543H10.1818C4.55856 35.543 0 30.8867 0 25.143V10.943ZM10.1818 3.14297H59.8182C64.0356 3.14297 67.4545 6.63515 67.4545 10.943V25.143C67.4545 29.4508 64.0356 32.943 59.8182 32.943H10.1818C5.96437 32.943 2.54545 29.4508 2.54545 25.143V10.943C2.54545 6.63515 5.96437 3.14297 10.1818 3.14297Z" fill="white"/>
</g>
<defs>
<clipPath id="clip0_2502_135209">
<rect width="70" height="35" fill="white" transform="translate(0 0.542969)"/>
</clipPath>
</defs>
</svg>
